<mxfile host="Electron" modified="2023-11-22T14:47:22.507Z" agent="Mozilla/5.0 (Windows NT 10.0; Win64; x64) AppleWebKit/537.36 (KHTML, like Gecko) draw.io/22.1.2 Chrome/114.0.5735.289 Electron/25.9.4 Safari/537.36" etag="rUwj5azmG7g7uaZJNMfU" version="22.1.2" type="device" pages="2">
  <diagram name="Page-1" id="2s3-vKgJM_kPPZK4WrA0">
    <mxGraphModel dx="780" dy="1690" grid="1" gridSize="10" guides="1" tooltips="1" connect="1" arrows="1" fold="1" page="1" pageScale="1" pageWidth="850" pageHeight="1100" math="0" shadow="0">
      <root>
        <mxCell id="0" />
        <mxCell id="1" parent="0" />
        <mxCell id="m8R-fHEi7dPfOOaoX3Ar-4" value="" style="rounded=0;whiteSpace=wrap;html=1;" parent="1" vertex="1">
          <mxGeometry x="125" y="90" width="150" height="450" as="geometry" />
        </mxCell>
        <mxCell id="m8R-fHEi7dPfOOaoX3Ar-2" value="" style="rounded=0;whiteSpace=wrap;html=1;" parent="1" vertex="1">
          <mxGeometry x="310" y="90" width="350" height="450" as="geometry" />
        </mxCell>
        <mxCell id="99dYmS51ax57RGtYD0m_-7" style="edgeStyle=orthogonalEdgeStyle;rounded=0;orthogonalLoop=1;jettySize=auto;html=1;" edge="1" parent="1" source="xErvhnKTYoeYcrd55XR8-36" target="m8R-fHEi7dPfOOaoX3Ar-13">
          <mxGeometry relative="1" as="geometry">
            <Array as="points">
              <mxPoint x="720" y="70" />
              <mxPoint x="720" y="70" />
            </Array>
          </mxGeometry>
        </mxCell>
        <mxCell id="xErvhnKTYoeYcrd55XR8-36" value="" style="rounded=0;whiteSpace=wrap;html=1;" parent="1" vertex="1">
          <mxGeometry x="680" y="90" width="440" height="450" as="geometry" />
        </mxCell>
        <mxCell id="xErvhnKTYoeYcrd55XR8-6" style="edgeStyle=orthogonalEdgeStyle;rounded=0;orthogonalLoop=1;jettySize=auto;html=1;" parent="1" source="xErvhnKTYoeYcrd55XR8-1" target="xErvhnKTYoeYcrd55XR8-3" edge="1">
          <mxGeometry relative="1" as="geometry" />
        </mxCell>
        <mxCell id="xErvhnKTYoeYcrd55XR8-1" value="Executor" style="rounded=1;whiteSpace=wrap;html=1;" parent="1" vertex="1">
          <mxGeometry x="140" y="230" width="120" height="60" as="geometry" />
        </mxCell>
        <mxCell id="xErvhnKTYoeYcrd55XR8-3" value="Queue" style="sketch=0;outlineConnect=0;fontColor=#232F3E;gradientColor=none;strokeColor=#232F3E;fillColor=#ffffff;dashed=0;verticalLabelPosition=bottom;verticalAlign=top;align=center;html=1;fontSize=12;fontStyle=0;aspect=fixed;shape=mxgraph.aws4.resourceIcon;resIcon=mxgraph.aws4.queue;" parent="1" vertex="1">
          <mxGeometry x="370" y="230" width="60" height="60" as="geometry" />
        </mxCell>
        <mxCell id="xErvhnKTYoeYcrd55XR8-7" style="edgeStyle=orthogonalEdgeStyle;rounded=0;orthogonalLoop=1;jettySize=auto;html=1;" parent="1" source="xErvhnKTYoeYcrd55XR8-4" target="xErvhnKTYoeYcrd55XR8-3" edge="1">
          <mxGeometry relative="1" as="geometry" />
        </mxCell>
        <mxCell id="xErvhnKTYoeYcrd55XR8-8" style="edgeStyle=orthogonalEdgeStyle;rounded=0;orthogonalLoop=1;jettySize=auto;html=1;" parent="1" source="xErvhnKTYoeYcrd55XR8-4" target="xErvhnKTYoeYcrd55XR8-5" edge="1">
          <mxGeometry relative="1" as="geometry">
            <Array as="points">
              <mxPoint x="570" y="150" />
            </Array>
          </mxGeometry>
        </mxCell>
        <mxCell id="xErvhnKTYoeYcrd55XR8-12" style="edgeStyle=orthogonalEdgeStyle;rounded=0;orthogonalLoop=1;jettySize=auto;html=1;" parent="1" source="xErvhnKTYoeYcrd55XR8-4" target="xErvhnKTYoeYcrd55XR8-9" edge="1">
          <mxGeometry relative="1" as="geometry" />
        </mxCell>
        <mxCell id="xErvhnKTYoeYcrd55XR8-13" style="edgeStyle=orthogonalEdgeStyle;rounded=0;orthogonalLoop=1;jettySize=auto;html=1;entryX=0;entryY=0.75;entryDx=0;entryDy=0;" parent="1" source="xErvhnKTYoeYcrd55XR8-4" target="xErvhnKTYoeYcrd55XR8-10" edge="1">
          <mxGeometry relative="1" as="geometry">
            <Array as="points">
              <mxPoint x="600" y="371" />
            </Array>
          </mxGeometry>
        </mxCell>
        <mxCell id="xErvhnKTYoeYcrd55XR8-14" style="edgeStyle=orthogonalEdgeStyle;rounded=0;orthogonalLoop=1;jettySize=auto;html=1;" parent="1" source="xErvhnKTYoeYcrd55XR8-4" target="xErvhnKTYoeYcrd55XR8-11" edge="1">
          <mxGeometry relative="1" as="geometry">
            <Array as="points">
              <mxPoint x="570" y="450" />
            </Array>
          </mxGeometry>
        </mxCell>
        <mxCell id="xErvhnKTYoeYcrd55XR8-4" value="Router" style="rounded=1;whiteSpace=wrap;html=1;" parent="1" vertex="1">
          <mxGeometry x="510" y="230" width="120" height="60" as="geometry" />
        </mxCell>
        <mxCell id="xErvhnKTYoeYcrd55XR8-16" style="edgeStyle=orthogonalEdgeStyle;rounded=0;orthogonalLoop=1;jettySize=auto;html=1;" parent="1" source="xErvhnKTYoeYcrd55XR8-5" target="xErvhnKTYoeYcrd55XR8-15" edge="1">
          <mxGeometry relative="1" as="geometry" />
        </mxCell>
        <mxCell id="xErvhnKTYoeYcrd55XR8-5" value="Planer J" style="rounded=1;whiteSpace=wrap;html=1;" parent="1" vertex="1">
          <mxGeometry x="710" y="120" width="120" height="60" as="geometry" />
        </mxCell>
        <mxCell id="xErvhnKTYoeYcrd55XR8-18" style="edgeStyle=orthogonalEdgeStyle;rounded=0;orthogonalLoop=1;jettySize=auto;html=1;" parent="1" source="xErvhnKTYoeYcrd55XR8-9" edge="1">
          <mxGeometry relative="1" as="geometry">
            <mxPoint x="910" y="260" as="targetPoint" />
          </mxGeometry>
        </mxCell>
        <mxCell id="xErvhnKTYoeYcrd55XR8-9" value="Planer R" style="rounded=1;whiteSpace=wrap;html=1;" parent="1" vertex="1">
          <mxGeometry x="710" y="230" width="120" height="60" as="geometry" />
        </mxCell>
        <mxCell id="xErvhnKTYoeYcrd55XR8-20" style="edgeStyle=orthogonalEdgeStyle;rounded=0;orthogonalLoop=1;jettySize=auto;html=1;" parent="1" source="xErvhnKTYoeYcrd55XR8-10" edge="1">
          <mxGeometry relative="1" as="geometry">
            <mxPoint x="910" y="356" as="targetPoint" />
          </mxGeometry>
        </mxCell>
        <mxCell id="xErvhnKTYoeYcrd55XR8-10" value="Planer P" style="rounded=1;whiteSpace=wrap;html=1;" parent="1" vertex="1">
          <mxGeometry x="720" y="326" width="120" height="60" as="geometry" />
        </mxCell>
        <mxCell id="xErvhnKTYoeYcrd55XR8-35" style="edgeStyle=orthogonalEdgeStyle;rounded=0;orthogonalLoop=1;jettySize=auto;html=1;entryX=0;entryY=0.5;entryDx=0;entryDy=0;" parent="1" source="xErvhnKTYoeYcrd55XR8-11" target="xErvhnKTYoeYcrd55XR8-32" edge="1">
          <mxGeometry relative="1" as="geometry" />
        </mxCell>
        <mxCell id="xErvhnKTYoeYcrd55XR8-11" value="Planer JS" style="rounded=1;whiteSpace=wrap;html=1;" parent="1" vertex="1">
          <mxGeometry x="720" y="420" width="120" height="60" as="geometry" />
        </mxCell>
        <mxCell id="xErvhnKTYoeYcrd55XR8-15" value="" style="rounded=1;whiteSpace=wrap;html=1;" parent="1" vertex="1">
          <mxGeometry x="910" y="120" width="120" height="60" as="geometry" />
        </mxCell>
        <mxCell id="xErvhnKTYoeYcrd55XR8-21" value="" style="rounded=1;whiteSpace=wrap;html=1;" parent="1" vertex="1">
          <mxGeometry x="920" y="130" width="120" height="60" as="geometry" />
        </mxCell>
        <mxCell id="xErvhnKTYoeYcrd55XR8-22" value="Workers J" style="rounded=1;whiteSpace=wrap;html=1;" parent="1" vertex="1">
          <mxGeometry x="930" y="140" width="120" height="60" as="geometry" />
        </mxCell>
        <mxCell id="xErvhnKTYoeYcrd55XR8-23" value="" style="rounded=1;whiteSpace=wrap;html=1;" parent="1" vertex="1">
          <mxGeometry x="910" y="240" width="120" height="60" as="geometry" />
        </mxCell>
        <mxCell id="xErvhnKTYoeYcrd55XR8-24" value="" style="rounded=1;whiteSpace=wrap;html=1;" parent="1" vertex="1">
          <mxGeometry x="920" y="250" width="120" height="60" as="geometry" />
        </mxCell>
        <mxCell id="xErvhnKTYoeYcrd55XR8-25" value="Workers R" style="rounded=1;whiteSpace=wrap;html=1;" parent="1" vertex="1">
          <mxGeometry x="930" y="260" width="120" height="60" as="geometry" />
        </mxCell>
        <mxCell id="xErvhnKTYoeYcrd55XR8-26" value="" style="rounded=1;whiteSpace=wrap;html=1;" parent="1" vertex="1">
          <mxGeometry x="910" y="330" width="120" height="60" as="geometry" />
        </mxCell>
        <mxCell id="xErvhnKTYoeYcrd55XR8-27" value="" style="rounded=1;whiteSpace=wrap;html=1;" parent="1" vertex="1">
          <mxGeometry x="920" y="340" width="120" height="60" as="geometry" />
        </mxCell>
        <mxCell id="xErvhnKTYoeYcrd55XR8-28" value="Workers P" style="rounded=1;whiteSpace=wrap;html=1;" parent="1" vertex="1">
          <mxGeometry x="930" y="350" width="120" height="60" as="geometry" />
        </mxCell>
        <mxCell id="xErvhnKTYoeYcrd55XR8-32" value="" style="rounded=1;whiteSpace=wrap;html=1;" parent="1" vertex="1">
          <mxGeometry x="930" y="420" width="120" height="60" as="geometry" />
        </mxCell>
        <mxCell id="xErvhnKTYoeYcrd55XR8-33" value="" style="rounded=1;whiteSpace=wrap;html=1;" parent="1" vertex="1">
          <mxGeometry x="940" y="430" width="120" height="60" as="geometry" />
        </mxCell>
        <mxCell id="xErvhnKTYoeYcrd55XR8-34" value="Workers JS" style="rounded=1;whiteSpace=wrap;html=1;" parent="1" vertex="1">
          <mxGeometry x="950" y="440" width="120" height="60" as="geometry" />
        </mxCell>
        <mxCell id="xErvhnKTYoeYcrd55XR8-37" value="Computation Engine" style="text;html=1;strokeColor=none;fillColor=none;align=center;verticalAlign=middle;whiteSpace=wrap;rounded=0;" parent="1" vertex="1">
          <mxGeometry x="670" y="533" width="130" height="30" as="geometry" />
        </mxCell>
        <mxCell id="m8R-fHEi7dPfOOaoX3Ar-3" value="Queue" style="text;html=1;strokeColor=none;fillColor=none;align=center;verticalAlign=middle;whiteSpace=wrap;rounded=0;" parent="1" vertex="1">
          <mxGeometry x="289" y="533" width="80" height="30" as="geometry" />
        </mxCell>
        <mxCell id="m8R-fHEi7dPfOOaoX3Ar-5" value="API" style="text;html=1;strokeColor=none;fillColor=none;align=center;verticalAlign=middle;whiteSpace=wrap;rounded=0;" parent="1" vertex="1">
          <mxGeometry x="95" y="534" width="80" height="30" as="geometry" />
        </mxCell>
        <mxCell id="m8R-fHEi7dPfOOaoX3Ar-16" style="edgeStyle=orthogonalEdgeStyle;rounded=0;orthogonalLoop=1;jettySize=auto;html=1;entryX=1;entryY=0.5;entryDx=0;entryDy=0;entryPerimeter=0;" parent="1" source="m8R-fHEi7dPfOOaoX3Ar-13" target="m8R-fHEi7dPfOOaoX3Ar-14" edge="1">
          <mxGeometry relative="1" as="geometry" />
        </mxCell>
        <mxCell id="m8R-fHEi7dPfOOaoX3Ar-13" value="Job Metadata" style="rounded=0;whiteSpace=wrap;html=1;" parent="1" vertex="1">
          <mxGeometry x="580" y="-50" width="180" height="60" as="geometry" />
        </mxCell>
        <mxCell id="m8R-fHEi7dPfOOaoX3Ar-14" value="Metadata" style="shape=cylinder3;whiteSpace=wrap;html=1;boundedLbl=1;backgroundOutline=1;size=15;" parent="1" vertex="1">
          <mxGeometry x="470" y="-45" width="50" height="50" as="geometry" />
        </mxCell>
        <mxCell id="99dYmS51ax57RGtYD0m_-5" style="edgeStyle=orthogonalEdgeStyle;rounded=0;orthogonalLoop=1;jettySize=auto;html=1;entryX=0.389;entryY=0.983;entryDx=0;entryDy=0;entryPerimeter=0;" edge="1" parent="1">
          <mxGeometry relative="1" as="geometry">
            <mxPoint x="620" y="91" as="sourcePoint" />
            <mxPoint x="620.02" y="9.980000000000018" as="targetPoint" />
            <Array as="points">
              <mxPoint x="620" y="81" />
              <mxPoint x="620" y="81" />
            </Array>
          </mxGeometry>
        </mxCell>
      </root>
    </mxGraphModel>
  </diagram>
  <diagram id="lxdeXZ9M7mzNJSrirU3O" name="Page-2">
    <mxGraphModel dx="780" dy="590" grid="1" gridSize="10" guides="1" tooltips="1" connect="1" arrows="1" fold="1" page="1" pageScale="1" pageWidth="850" pageHeight="1100" math="0" shadow="0">
      <root>
        <mxCell id="0" />
        <mxCell id="1" parent="0" />
      </root>
    </mxGraphModel>
  </diagram>
</mxfile>
